<svg width="458" height="46" viewBox="0 0 458 46" fill="none" xmlns="http://www.w3.org/2000/svg">
<path d="M0.938843 37V5.25H13.8347C15.3763 5.25 16.8191 5.375 18.168 5.625C19.5118 5.86458 20.7357 6.22396 21.8347 6.70833C22.9441 7.18229 23.9076 7.78646 24.7305 8.52083C25.5482 9.26042 26.168 10.1354 26.5847 11.1458C27.0013 12.1615 27.2097 13.3073 27.2097 14.5833C27.2097 15.7083 27.0326 16.724 26.6888 17.625C26.3555 18.5156 25.8347 19.3073 25.1263 20C24.4284 20.6823 23.543 21.2448 22.4597 21.6875C21.3868 22.1198 20.1472 22.4115 18.7305 22.5625V23.25C20.3659 23.4323 21.6784 23.8125 22.668 24.3958C23.668 24.9792 24.4441 25.7708 25.0013 26.7708C25.5691 27.7604 26.0638 28.9896 26.4805 30.4583L28.3555 37H20.7097L19.2722 30.9792C18.9805 29.7031 18.5534 28.6979 18.0013 27.9583C17.4597 27.224 16.7774 26.7083 15.9597 26.4167C15.1524 26.125 14.168 25.9792 13.0013 25.9792H7.85551V37H0.938843ZM7.85551 20.75H12.3347C12.8763 20.75 13.4805 20.7396 14.1472 20.7083C14.8243 20.6667 15.5118 20.5729 16.2097 20.4167C16.9024 20.25 17.5274 19.9948 18.0847 19.6458C18.6524 19.2865 19.1159 18.7865 19.4805 18.1458C19.8555 17.5104 20.043 16.6875 20.043 15.6875C20.043 14.6615 19.8607 13.8281 19.5013 13.1875C19.1524 12.5521 18.6993 12.0573 18.1472 11.7083C17.6055 11.349 17.0274 11.0937 16.418 10.9375C15.8191 10.7708 15.2409 10.6771 14.6888 10.6458C14.1472 10.6042 13.7149 10.5833 13.3972 10.5833H7.85551V20.75Z" fill="black"/>
<path d="M43.9423 37.6667C41.859 37.6667 40.0048 37.3802 38.3798 36.8125C36.7653 36.2292 35.4007 35.3906 34.2757 34.2917C33.1507 33.1823 32.2965 31.8333 31.7132 30.25C31.1403 28.6563 30.859 26.849 30.859 24.8333C30.859 22.849 31.1351 21.0156 31.6923 19.3333C32.2601 17.6406 33.0778 16.1771 34.1507 14.9375C35.234 13.7031 36.5569 12.75 38.1298 12.0833C39.6976 11.4063 41.4736 11.0625 43.4632 11.0625C45.4215 11.0625 47.1403 11.3906 48.6298 12.0417C50.1298 12.6823 51.3694 13.625 52.359 14.875C53.359 16.125 54.0882 17.6563 54.5465 19.4583C55.0153 21.25 55.1715 23.3125 55.0048 25.6458L35.3382 25.7917V22L50.9215 21.8542L48.609 23.8125C48.8278 22.1198 48.7236 20.7292 48.2965 19.6458C47.8642 18.5521 47.2236 17.7448 46.3798 17.2292C45.5309 16.7187 44.5726 16.4583 43.5048 16.4583C42.2965 16.4583 41.234 16.7813 40.3173 17.4167C39.4007 18.0573 38.6923 18.9948 38.1923 20.2292C37.6923 21.4687 37.4423 22.9531 37.4423 24.6875C37.4423 27.4115 38.0309 29.4115 39.2132 30.6875C40.4059 31.9531 41.984 32.5833 43.9423 32.5833C44.8434 32.5833 45.609 32.4687 46.234 32.2292C46.859 31.9792 47.3694 31.6667 47.7757 31.2917C48.1767 30.9063 48.4892 30.4687 48.7132 29.9792C48.9319 29.4948 49.109 28.9948 49.234 28.4792L55.2965 29.7292C55.0726 30.9271 54.6767 32 54.109 32.9583C53.5517 33.9167 52.8173 34.75 51.9007 35.4583C50.9944 36.1667 49.8851 36.7083 48.5673 37.0833C47.2444 37.4688 45.7028 37.6667 43.9423 37.6667Z" fill="black"/>
<path d="M65.0148 37L56.5981 11.7916H64.244L69.5356 31.5208H70.2648L75.5981 11.7916H82.9523L74.494 37H65.0148Z" fill="black"/>
<path d="M91.7168 37.6667C90.3002 37.6667 89.0397 37.3958 87.946 36.8542C86.8627 36.3125 86.0085 35.5208 85.3835 34.4792C84.7585 33.4375 84.446 32.1615 84.446 30.6458C84.446 28.8854 84.8418 27.4896 85.6335 26.4583C86.4252 25.4323 87.4304 24.6458 88.6543 24.1042C89.8887 23.5625 91.196 23.1771 92.571 22.9375C93.9564 22.6875 95.2429 22.4896 96.4252 22.3333C97.5189 22.1667 98.4043 22 99.071 21.8333C99.7481 21.6563 100.243 21.3958 100.55 21.0625C100.852 20.7187 101.008 20.2604 101.008 19.6875C101.008 19.0521 100.863 18.4896 100.571 18C100.279 17.5156 99.8418 17.1198 99.2585 16.8125C98.6856 16.5104 97.9356 16.3542 97.0085 16.3542C96.1022 16.3542 95.2481 16.5208 94.446 16.8542C93.6543 17.1771 92.972 17.6615 92.4043 18.3125C91.847 18.9687 91.472 19.7917 91.2793 20.7917L85.1335 19.0625C85.4772 17.6771 86.0137 16.4896 86.7377 15.5C87.4564 14.5 88.3314 13.6771 89.3627 13.0208C90.3887 12.3698 91.5397 11.8854 92.821 11.5625C94.1127 11.2292 95.5085 11.0625 97.0085 11.0625C98.9668 11.0625 100.633 11.3073 102.008 11.7917C103.394 12.2813 104.514 13.0156 105.363 14C106.206 14.974 106.831 16.1563 107.238 17.5417C107.639 18.9323 107.842 20.5313 107.842 22.3333V26.6667C107.842 27.75 107.852 28.8854 107.883 30.0625C107.91 31.2292 107.967 32.3906 108.05 33.5417C108.133 34.6979 108.222 35.849 108.321 37H102.196C102.113 36.1406 102.008 35.1875 101.883 34.1458C101.769 33.1042 101.701 32.0365 101.675 30.9375H100.863C100.404 32.1615 99.7585 33.2917 98.9252 34.3333C98.0918 35.375 97.0606 36.1979 95.8418 36.7917C94.6335 37.375 93.2585 37.6667 91.7168 37.6667ZM94.6543 32.625C95.2637 32.625 95.8835 32.5208 96.5085 32.3125C97.1335 32.1042 97.7377 31.7917 98.321 31.375C98.9147 30.9583 99.4668 30.4323 99.9668 29.7917C100.467 29.1406 100.863 28.4167 101.154 27.625L101.05 23.8125L102.154 24.0208C101.613 24.4375 100.956 24.7656 100.196 25C99.446 25.2396 98.6595 25.4271 97.8418 25.5625C97.0345 25.6875 96.2272 25.8333 95.4252 26C94.6179 26.1563 93.8939 26.3646 93.2585 26.625C92.6179 26.875 92.1022 27.224 91.7168 27.6667C91.3262 28.1146 91.1335 28.724 91.1335 29.5C91.1335 30.4583 91.4564 31.224 92.1127 31.7917C92.7793 32.349 93.6231 32.625 94.6543 32.625Z" fill="black"/>
<path d="M112.94 37V11.75H118.523L118.461 19.5833H119.378C119.794 17.625 120.362 16.0208 121.086 14.7708C121.805 13.5208 122.695 12.5937 123.753 11.9792C124.805 11.3698 126.044 11.0625 127.461 11.0625C128.586 11.0625 129.565 11.2604 130.398 11.6458C131.232 12.0365 131.93 12.5833 132.503 13.2917C133.086 13.9896 133.544 14.8698 133.878 15.9375C134.221 16.9948 134.445 18.1979 134.544 19.5417H135.294C135.753 17.5833 136.378 15.9792 137.169 14.7292C137.971 13.4792 138.95 12.5573 140.107 11.9583C141.258 11.3646 142.529 11.0625 143.919 11.0625C145.513 11.0625 146.836 11.3958 147.878 12.0625C148.919 12.7187 149.721 13.5625 150.294 14.6042C150.878 15.6458 151.315 16.7604 151.607 17.9375C151.898 19.1042 152.07 20.2448 152.128 21.3542C152.195 22.4531 152.232 23.3542 152.232 24.0625V37H145.315V24.875C145.315 24.2656 145.284 23.5208 145.232 22.6458C145.19 21.7604 145.034 20.8906 144.773 20.0417C144.523 19.1979 144.112 18.4896 143.544 17.9167C142.987 17.3333 142.211 17.0417 141.211 17.0417C140.195 17.0417 139.294 17.4063 138.503 18.125C137.711 18.849 137.096 19.8437 136.669 21.1042C136.237 22.3698 136.008 23.8698 135.982 25.6042V37H129.19V25.125C129.19 24.5417 129.159 23.8073 129.107 22.9167C129.065 22.0156 128.909 21.1198 128.648 20.2292C128.398 19.3281 127.992 18.5729 127.44 17.9583C126.883 17.349 126.07 17.0417 125.003 17.0417C123.971 17.0417 123.075 17.4063 122.315 18.125C121.549 18.849 120.961 19.849 120.544 21.125C120.128 22.4063 119.898 23.8958 119.857 25.6042V37H112.94Z" fill="black"/>
<path d="M157.297 44.9792V11.75H163.068V18.8125L163.88 18.9167C164.198 17.1823 164.719 15.7292 165.443 14.5625C166.161 13.3958 167.094 12.5208 168.234 11.9375C169.37 11.3542 170.713 11.0625 172.255 11.0625C174.463 11.0625 176.349 11.6146 177.922 12.7083C179.489 13.7917 180.698 15.3437 181.547 17.3542C182.406 19.3542 182.838 21.7396 182.838 24.5C182.838 27.0573 182.448 29.3229 181.672 31.2917C180.906 33.2656 179.765 34.8229 178.255 35.9583C176.755 37.0938 174.88 37.6667 172.63 37.6667C171.031 37.6667 169.677 37.3646 168.568 36.7708C167.469 36.1615 166.547 35.2865 165.797 34.1458C165.057 33.0104 164.469 31.6563 164.026 30.0833H163.151C163.344 30.974 163.515 31.875 163.672 32.7917C163.838 33.7083 163.969 34.599 164.068 35.4583C164.161 36.3229 164.213 37.151 164.213 37.9583V44.9792H157.297ZM170.234 32.0833C171.359 32.0833 172.318 31.7656 173.109 31.125C173.911 30.4896 174.531 29.599 174.963 28.4583C175.406 27.3229 175.63 26.0156 175.63 24.5417C175.63 22.9479 175.401 21.5781 174.943 20.4375C174.495 19.3021 173.859 18.4167 173.026 17.7917C172.193 17.1667 171.213 16.8542 170.088 16.8542C169.057 16.8542 168.182 17.0729 167.463 17.5C166.739 17.9323 166.13 18.5156 165.63 19.25C165.14 19.9896 164.781 20.7708 164.547 21.6042C164.323 22.4375 164.213 23.2604 164.213 24.0625V24.9167C164.213 25.599 164.286 26.2708 164.443 26.9375C164.609 27.5937 164.859 28.224 165.193 28.8333C165.536 29.4323 165.948 29.9792 166.422 30.4792C166.906 30.9792 167.469 31.375 168.109 31.6667C168.745 31.9479 169.453 32.0833 170.234 32.0833Z" fill="black"/>
<path d="M228.064 37V5.25H238.46L247.168 29.1667H247.397L255.96 5.25H265.918V37H259.335L259.71 12.2708H259.231L249.814 37H243.939L234.606 12.2708H234.126L234.501 37H228.064Z" fill="black"/>
<path d="M277.564 37.6667C276.148 37.6667 274.887 37.3958 273.794 36.8542C272.71 36.3125 271.856 35.5208 271.231 34.4792C270.606 33.4375 270.294 32.1615 270.294 30.6458C270.294 28.8854 270.689 27.4896 271.481 26.4583C272.273 25.4323 273.278 24.6458 274.502 24.1042C275.736 23.5625 277.044 23.1771 278.419 22.9375C279.804 22.6875 281.09 22.4896 282.273 22.3333C283.366 22.1667 284.252 22 284.919 21.8333C285.596 21.6563 286.09 21.3958 286.398 21.0625C286.7 20.7187 286.856 20.2604 286.856 19.6875C286.856 19.0521 286.71 18.4896 286.419 18C286.127 17.5156 285.689 17.1198 285.106 16.8125C284.533 16.5104 283.783 16.3542 282.856 16.3542C281.95 16.3542 281.096 16.5208 280.294 16.8542C279.502 17.1771 278.82 17.6615 278.252 18.3125C277.695 18.9687 277.32 19.7917 277.127 20.7917L270.981 19.0625C271.325 17.6771 271.861 16.4896 272.585 15.5C273.304 14.5 274.179 13.6771 275.21 13.0208C276.236 12.3698 277.387 11.8854 278.669 11.5625C279.96 11.2292 281.356 11.0625 282.856 11.0625C284.814 11.0625 286.481 11.3073 287.856 11.7917C289.241 12.2813 290.361 13.0156 291.21 14C292.054 14.974 292.679 16.1563 293.085 17.5417C293.486 18.9323 293.689 20.5313 293.689 22.3333V26.6667C293.689 27.75 293.7 28.8854 293.731 30.0625C293.757 31.2292 293.814 32.3906 293.898 33.5417C293.981 34.6979 294.07 35.849 294.169 37H288.044C287.96 36.1406 287.856 35.1875 287.731 34.1458C287.616 33.1042 287.549 32.0365 287.523 30.9375H286.71C286.252 32.1615 285.606 33.2917 284.773 34.3333C283.939 35.375 282.908 36.1979 281.689 36.7917C280.481 37.375 279.106 37.6667 277.564 37.6667ZM280.502 32.625C281.111 32.625 281.731 32.5208 282.356 32.3125C282.981 32.1042 283.585 31.7917 284.169 31.375C284.762 30.9583 285.314 30.4323 285.814 29.7917C286.314 29.1406 286.71 28.4167 287.002 27.625L286.898 23.8125L288.002 24.0208C287.46 24.4375 286.804 24.7656 286.044 25C285.294 25.2396 284.507 25.4271 283.689 25.5625C282.882 25.6875 282.075 25.8333 281.273 26C280.465 26.1563 279.741 26.3646 279.106 26.625C278.465 26.875 277.95 27.224 277.564 27.6667C277.174 28.1146 276.981 28.724 276.981 29.5C276.981 30.4583 277.304 31.224 277.96 31.7917C278.627 32.349 279.471 32.625 280.502 32.625Z" fill="black"/>
<path d="M298.788 37V11.75H304.558L304.517 20.5H305.413C305.673 18.3229 306.111 16.5416 306.725 15.1666C307.334 13.7812 308.189 12.7656 309.288 12.125C310.397 11.4895 311.772 11.1666 313.413 11.1666C313.73 11.1666 314.064 11.1875 314.413 11.2291C314.772 11.2604 315.173 11.3229 315.621 11.4166L315.371 18.7708C314.829 18.552 314.272 18.3906 313.704 18.2916C313.147 18.1979 312.631 18.1458 312.163 18.1458C310.939 18.1458 309.876 18.4375 308.975 19.0208C308.084 19.5937 307.371 20.427 306.829 21.5208C306.298 22.6041 305.923 23.9479 305.704 25.5416V37H298.788Z" fill="black"/>
<path d="M318.705 36.9999V2.64575H325.476V21.7083C326.502 21.0312 327.476 20.302 328.392 19.5208C329.309 18.7291 330.142 17.9062 330.892 17.0416C331.642 16.1666 332.298 15.2864 332.871 14.3958C333.455 13.4947 333.939 12.6145 334.33 11.7499H342.267C341.819 12.9739 341.205 14.203 340.413 15.4374C339.632 16.6614 338.705 17.7916 337.621 18.8333C336.548 19.8749 335.314 20.7708 333.913 21.5208C332.522 22.2603 330.981 22.7655 329.288 23.0416V23.8124C331.423 23.4687 333.189 23.5103 334.58 23.9374C335.981 24.3697 337.132 25.0624 338.038 26.0208C338.939 26.9687 339.663 28.0572 340.205 29.2916C340.746 30.5155 341.226 31.7708 341.642 33.0624L342.809 36.9999H335.246L334.621 34.4999C334.173 32.9583 333.694 31.6145 333.184 30.4583C332.668 29.3072 331.965 28.4062 331.08 27.7499C330.205 27.0833 328.996 26.7499 327.455 26.7499H325.476V36.9999H318.705Z" fill="black"/>
<path d="M357.808 37.6667C355.725 37.6667 353.87 37.3802 352.245 36.8125C350.631 36.2292 349.266 35.3906 348.141 34.2917C347.016 33.1823 346.162 31.8333 345.579 30.25C345.006 28.6563 344.725 26.849 344.725 24.8333C344.725 22.849 345.001 21.0156 345.558 19.3333C346.126 17.6406 346.943 16.1771 348.016 14.9375C349.1 13.7031 350.423 12.75 351.995 12.0833C353.563 11.4063 355.339 11.0625 357.329 11.0625C359.287 11.0625 361.006 11.3906 362.495 12.0417C363.995 12.6823 365.235 13.625 366.225 14.875C367.225 16.125 367.954 17.6563 368.412 19.4583C368.881 21.25 369.037 23.3125 368.87 25.6458L349.204 25.7917V22L364.787 21.8542L362.475 23.8125C362.693 22.1198 362.589 20.7292 362.162 19.6458C361.73 18.5521 361.089 17.7448 360.245 17.2292C359.396 16.7187 358.438 16.4583 357.37 16.4583C356.162 16.4583 355.1 16.7813 354.183 17.4167C353.266 18.0573 352.558 18.9948 352.058 20.2292C351.558 21.4687 351.308 22.9531 351.308 24.6875C351.308 27.4115 351.896 29.4115 353.079 30.6875C354.271 31.9531 355.85 32.5833 357.808 32.5833C358.709 32.5833 359.475 32.4687 360.1 32.2292C360.725 31.9792 361.235 31.6667 361.641 31.2917C362.042 30.9063 362.355 30.4687 362.579 29.9792C362.798 29.4948 362.975 28.9948 363.1 28.4792L369.162 29.7292C368.938 30.9271 368.542 32 367.975 32.9583C367.417 33.9167 366.683 34.75 365.766 35.4583C364.86 36.1667 363.751 36.7083 362.433 37.0833C361.11 37.4688 359.568 37.6667 357.808 37.6667Z" fill="black"/>
<path d="M382.485 37.5833C381.11 37.5833 379.906 37.401 378.88 37.0417C377.849 36.6979 376.99 36.1458 376.297 35.3958C375.615 34.6354 375.094 33.6615 374.735 32.4792C374.386 31.3021 374.214 29.8906 374.214 28.25V17.1875H370.61L370.755 11.8333H373.068C374.12 11.8073 374.906 11.625 375.422 11.2917C375.933 10.9583 376.24 10.3542 376.339 9.47917L376.901 6.125H380.86V11.75H387.214V17.375H380.86V27.9167C380.86 29.224 381.177 30.1042 381.818 30.5625C382.453 31.0104 383.24 31.2292 384.172 31.2292C384.755 31.2292 385.328 31.1615 385.901 31.0208C386.485 30.8698 386.985 30.6667 387.401 30.4167V36.8542C386.401 37.1458 385.485 37.3385 384.651 37.4375C383.818 37.5313 383.094 37.5833 382.485 37.5833Z" fill="black"/>
<path d="M391.253 37V11.75H398.17V37H391.253ZM394.711 8.10413C393.362 8.10413 392.326 7.81246 391.607 7.22913C390.883 6.64579 390.524 5.82808 390.524 4.77079C390.524 3.64579 390.883 2.80204 391.607 2.22913C392.326 1.64579 393.362 1.35413 394.711 1.35413C396.086 1.35413 397.133 1.64579 397.857 2.22913C398.576 2.80204 398.941 3.64579 398.941 4.77079C398.941 5.82808 398.576 6.64579 397.857 7.22913C397.133 7.81246 396.086 8.10413 394.711 8.10413Z" fill="black"/>
<path d="M403.569 37V11.75H409.236L409.194 19.5833H410.111C410.527 17.5 411.142 15.8437 411.965 14.6042C412.783 13.3698 413.777 12.474 414.944 11.9167C416.111 11.349 417.428 11.0625 418.902 11.0625C420.569 11.0625 421.934 11.3646 423.006 11.9583C424.09 12.5573 424.949 13.3333 425.59 14.2917C426.225 15.25 426.704 16.3021 427.027 17.4375C427.361 18.5781 427.574 19.7083 427.673 20.8333C427.767 21.9583 427.819 22.974 427.819 23.875V37H420.881V24.6875C420.881 24.0781 420.845 23.3437 420.777 22.4792C420.72 21.6042 420.553 20.7448 420.277 19.8958C420.012 19.0521 419.559 18.3437 418.923 17.7708C418.298 17.1875 417.428 16.8958 416.319 16.8958C415.027 16.8958 413.954 17.2917 413.111 18.0833C412.262 18.8646 411.611 19.9271 411.152 21.2708C410.704 22.6198 410.486 24.125 410.486 25.7917V37H403.569Z" fill="black"/>
<path d="M442.867 45.7083C440.076 45.7083 437.794 45.4895 436.034 45.0624C434.268 44.6301 432.977 43.9999 432.159 43.1666C431.336 42.3333 430.93 41.302 430.93 40.0833C430.93 38.6093 431.503 37.4062 432.659 36.4791C433.826 35.552 435.56 34.9895 437.867 34.7916V33.8749C436.102 33.8749 434.763 33.6822 433.846 33.2916C432.93 32.9062 432.471 32.2499 432.471 31.3333C432.471 30.4322 432.919 29.6249 433.826 28.9166C434.727 28.2083 436.232 27.6666 438.346 27.2916V26.3749C436.388 26.2083 434.846 25.552 433.721 24.3958C432.607 23.2447 432.055 21.7499 432.055 19.9166C432.055 18.3228 432.498 16.8905 433.388 15.6249C434.289 14.3489 435.623 13.3333 437.388 12.5833C439.149 11.8333 441.315 11.4583 443.888 11.4583H456.68V16.7916L448.638 15.6874V16.7083C450.721 17.0312 452.227 17.5624 453.159 18.3124C454.086 19.0624 454.555 20.0833 454.555 21.3749C454.555 22.6822 454.128 23.8333 453.284 24.8333C452.435 25.8228 451.211 26.5989 449.617 27.1666C448.034 27.7239 446.123 27.9999 443.888 27.9999C443.471 27.9999 443.013 27.9791 442.513 27.9374C442.013 27.8853 441.232 27.7916 440.18 27.6666C439.565 28.1562 439.081 28.5572 438.721 28.8749C438.373 29.1978 438.201 29.4999 438.201 29.7916C438.201 30.0155 438.315 30.203 438.555 30.3541C438.805 30.4947 439.117 30.5989 439.492 30.6666C439.878 30.7239 440.284 30.7499 440.701 30.7499H447.971C448.607 30.7499 449.44 30.802 450.471 30.8958C451.498 30.9947 452.524 31.2447 453.555 31.6458C454.581 32.0364 455.44 32.6874 456.138 33.6041C456.846 34.5208 457.201 35.828 457.201 37.5208C457.201 39.3801 456.68 40.9062 455.638 42.1041C454.596 43.3124 453.013 44.2135 450.888 44.8124C448.774 45.4062 446.102 45.7083 442.867 45.7083ZM443.596 40.1249C445.555 40.1249 447.081 40.0208 448.18 39.8124C449.289 39.6041 450.065 39.2708 450.513 38.8124C450.971 38.3645 451.201 37.8124 451.201 37.1458C451.201 36.5103 451.055 36.0155 450.763 35.6666C450.471 35.3072 450.117 35.0572 449.701 34.9166C449.284 34.7655 448.846 34.677 448.388 34.6458C447.94 34.6197 447.576 34.6041 447.284 34.6041H441.18C439.831 34.7291 438.867 35.0833 438.284 35.6666C437.711 36.2395 437.43 36.9062 437.43 37.6666C437.43 38.3176 437.649 38.8176 438.096 39.1666C438.555 39.5103 439.232 39.7551 440.138 39.8958C441.055 40.0468 442.206 40.1249 443.596 40.1249ZM443.534 24.3541C445.044 24.3541 446.185 23.9791 446.951 23.2291C447.727 22.4687 448.117 21.4947 448.117 20.3124C448.117 19.0208 447.721 17.9583 446.93 17.1249C446.149 16.2916 445.018 15.8749 443.534 15.8749C442.06 15.8749 440.914 16.2864 440.096 17.1041C439.274 17.927 438.867 18.9739 438.867 20.2499C438.867 21.0572 439.055 21.7708 439.43 22.3958C439.805 23.0208 440.331 23.5103 441.013 23.8541C441.706 24.1874 442.544 24.3541 443.534 24.3541Z" fill="black"/>
<mask id="mask0_56_101" style="mask-type:luminance" maskUnits="userSpaceOnUse" x="188" y="17" width="32" height="22">
<path d="M188.667 17.6666H219.333V39H188.667V17.6666Z" fill="white"/>
</mask>
<g mask="url(#mask0_56_101)">
<mask id="mask1_56_101" style="mask-type:luminance" maskUnits="userSpaceOnUse" x="186" y="17" width="35" height="24">
<path d="M186.865 40.8333L186.833 17.8333L220.833 17.7864L220.865 40.7864L186.865 40.8333Z" fill="white"/>
</mask>
<g mask="url(#mask1_56_101)">
<mask id="mask2_56_101" style="mask-type:luminance" maskUnits="userSpaceOnUse" x="186" y="17" width="35" height="24">
<path d="M186.865 40.8333L186.833 17.8333L220.833 17.7864L220.865 40.7864L186.865 40.8333Z" fill="white"/>
</mask>
<g mask="url(#mask2_56_101)">
<path d="M204.292 17.7968L189.688 32.2915C186.865 35.0884 192.099 40.8228 195.38 37.453L204.307 28.2811L213.109 37.7238C215.787 40.5988 221.271 35.2603 218.495 32.4009L204.292 17.7968Z" fill="#8168FF"/>
</g>
</g>
</g>
<mask id="mask3_56_101" style="mask-type:luminance" maskUnits="userSpaceOnUse" x="188" y="0" width="32" height="23">
<path d="M188.667 0.333374H219.333V23H188.667V0.333374Z" fill="white"/>
</mask>
<g mask="url(#mask3_56_101)">
<mask id="mask4_56_101" style="mask-type:luminance" maskUnits="userSpaceOnUse" x="186" y="1" width="35" height="24">
<path d="M186.844 24.2553L186.812 1.25529L220.813 1.21362L220.844 24.2136L186.844 24.2553Z" fill="white"/>
</mask>
<g mask="url(#mask4_56_101)">
<mask id="mask5_56_101" style="mask-type:luminance" maskUnits="userSpaceOnUse" x="186" y="1" width="35" height="24">
<path d="M186.844 24.2553L186.812 1.25529L220.813 1.21362L220.844 24.2136L186.844 24.2553Z" fill="white"/>
</mask>
<g mask="url(#mask5_56_101)">
<path d="M204.271 1.21887L189.667 15.7137C186.844 18.5105 192.078 24.2501 195.359 20.8751L204.286 11.7032L213.089 21.146C215.766 24.021 221.25 18.6824 218.469 15.823L204.271 1.21887Z" fill="#18CB96"/>
</g>
</g>
</g>
</svg>
