<svg width="1467" height="278" viewBox="0 0 1467 278" fill="none" xmlns="http://www.w3.org/2000/svg">
<mask id="mask0_271_1131" style="mask-type:luminance" maskUnits="userSpaceOnUse" x="584" y="0" width="191" height="164">
<path d="M584 0H775V164H584V0Z" fill="white"/>
</mask>
<g mask="url(#mask0_271_1131)">
<mask id="mask1_271_1131" style="mask-type:luminance" maskUnits="userSpaceOnUse" x="547" y="-33" width="283" height="230">
<path d="M774.215 -32.0669L829.38 134.549L602.292 196.31L547.127 29.7L774.215 -32.0669Z" fill="white"/>
</mask>
<g mask="url(#mask1_271_1131)">
<mask id="mask2_271_1131" style="mask-type:luminance" maskUnits="userSpaceOnUse" x="337" y="-96" width="947" height="1016">
<path d="M1007.98 -95.6489L1283.82 737.425L613.372 919.777L337.534 86.7038L1007.98 -95.6489Z" fill="white"/>
</mask>
<g mask="url(#mask2_271_1131)">
<path d="M700.188 152.362L710.083 149.669C711.261 149.348 712.335 148.791 713.186 148.055C714.501 146.922 715.679 145.801 716.746 144.698C725.169 149.716 733.572 151.306 741.74 149.36C758.92 145.255 769.502 126.997 771.446 123.379C776.878 113.289 776.414 92.819 767.703 82.5274C762.46 76.3466 752.918 71.2394 740.719 67.8049C745.006 62.7689 746.786 57.4719 745.948 52.0325C743.612 36.8829 736.884 22.629 728.808 15.7126C728.742 15.6592 728.624 15.5465 728.454 15.3745C720.057 7.18282 697.295 -9.80561 667.314 9.41907C640.638 26.5261 646.921 60.7403 651.888 77.1237L638.635 60.936C638.314 60.5504 638.059 60.1234 637.869 59.6666C636.004 55.1763 625.978 32.6121 611.769 29.2725C606.776 28.104 601.815 29.3734 597.017 33.0629C581.801 44.7602 582.534 61.0606 587.75 76.7974C590.519 85.1611 594.55 93.3706 598.123 100.643C601.52 107.547 606.651 111.67 613.373 112.898C625.703 115.14 639.218 106.984 644.637 102.357C645.697 101.461 646.705 100.489 647.706 99.4743C648.151 100.18 648.91 100.833 649.866 101.438C642.385 105.121 633.275 110.122 629.132 114.399C626.999 116.599 626.037 119.233 626.279 122.217C626.364 123.249 626.593 124.322 626.966 125.449C629.472 133.024 638.55 142.752 654.552 155.043C675.58 171.189 692.976 158.05 697.812 153.637C698.453 153.05 699.272 152.611 700.188 152.362ZM766.067 83.6663C774.123 93.1689 774.745 112.999 769.601 122.561C767.722 126.048 757.526 143.66 741.216 147.551C733.697 149.348 725.915 147.907 718.061 143.28C728.997 130.96 725.47 120.651 722.021 115.276C721.759 114.861 721.458 114.464 721.17 114.06C720.758 113.497 720.332 112.945 719.881 112.417C714.056 105.548 705.018 101.515 698.663 101.669C698.578 101.675 698.499 101.687 698.408 101.687C698.021 101.705 697.635 101.722 697.275 101.776C696.817 101.835 696.379 101.918 695.966 102.031C695.404 102.185 694.821 102.31 694.206 102.411C693.997 102.446 693.767 102.464 693.545 102.494C693.139 102.547 692.727 102.6 692.295 102.636C692.013 102.66 691.719 102.66 691.431 102.672C691.032 102.689 690.646 102.713 690.233 102.713C689.913 102.713 689.579 102.695 689.245 102.689C688.839 102.677 688.434 102.666 688.008 102.636C687.668 102.618 687.308 102.577 686.954 102.547C686.516 102.505 686.077 102.464 685.626 102.411C685.272 102.369 684.899 102.31 684.533 102.256C684.055 102.185 683.577 102.114 683.087 102.031C682.72 101.966 682.347 101.894 681.98 101.817C681.45 101.717 680.927 101.61 680.384 101.491C680.024 101.408 679.657 101.325 679.291 101.236C678.97 101.159 678.636 101.076 678.309 100.993C678.322 100.969 678.329 100.945 678.342 100.922C678.682 100.329 678.957 99.7175 679.166 99.0888C679.186 99.0413 679.206 98.9939 679.219 98.9464C679.631 97.6474 679.775 96.3009 679.651 94.9662C679.637 94.8417 679.618 94.723 679.605 94.5985C679.579 94.4324 679.565 94.2722 679.533 94.1061C689.546 91.8106 699.029 88.3049 709.193 86.4602C704.985 86.3 698.002 87.9134 693.407 88.7202C688.715 89.6989 683.132 90.9564 679.461 93.7087C679.415 93.4892 679.336 93.2757 679.271 93.0622C679.245 92.9673 679.238 92.8724 679.206 92.7774C679.186 92.7181 679.153 92.6588 679.134 92.5995C678.996 92.2139 678.826 91.8462 678.636 91.4784C678.558 91.3182 678.499 91.1581 678.407 91.0039C678.302 90.82 678.178 90.648 678.054 90.47C689.828 82.9249 703.296 77.9007 717.433 75.4153C710.515 75.5695 702.622 77.7346 695.698 79.7989C688.977 81.8512 682.334 85.0306 677.792 90.0904C677.661 89.9065 677.55 89.7167 677.406 89.5447C677.164 89.254 676.895 88.9634 676.614 88.6727C676.791 88.477 676.987 88.2634 677.19 88.0499C677.517 87.694 677.883 87.3084 678.263 86.911C678.407 86.7627 678.545 86.6203 678.695 86.4661C679.022 86.128 679.369 85.778 679.729 85.4162C680.03 85.1137 680.344 84.8052 680.665 84.4849C680.901 84.2595 681.136 84.0282 681.378 83.7968C681.895 83.2986 682.439 82.7884 683.001 82.2664C683.087 82.1893 683.172 82.1122 683.263 82.0292C687.825 77.8533 693.846 73.0723 700.456 69.7327C700.901 69.5073 701.346 69.2938 701.798 69.0862C702.321 68.837 702.845 68.5998 703.382 68.3744C704.023 68.1015 704.677 67.8405 705.332 67.5973C705.659 67.4728 705.999 67.366 706.333 67.2533C707.079 66.9982 707.832 66.7609 708.585 66.5593C708.827 66.494 709.069 66.4406 709.311 66.3813C710.155 66.1796 711.006 65.9958 711.85 65.8593C712.001 65.8356 712.151 65.8237 712.302 65.8C713.238 65.6695 714.174 65.5687 715.11 65.539C715.175 65.5331 715.241 65.539 715.306 65.5331C716.314 65.5094 717.322 65.5272 718.33 65.628C719.946 65.7822 721.537 65.972 723.12 66.1796C723.585 66.239 724.037 66.3101 724.495 66.3754C725.679 66.5415 726.851 66.7254 728.009 66.9211C728.435 66.9923 728.86 67.0635 729.279 67.1406C732.381 67.6982 735.398 68.3684 738.317 69.1336C750.929 72.4732 760.916 77.5804 766.067 83.6663ZM652.412 100.667L651.927 100.429L651.921 100.435C650.199 99.5515 649.198 98.6676 649.303 97.9143C649.303 97.8787 649.316 97.8372 649.323 97.8016L649.368 97.5525C649.931 94.5807 653.092 88.0143 656.319 84.995C657.006 84.3544 657.647 83.9036 658.217 83.6723C658.42 83.5892 658.622 83.524 658.819 83.4943C659.356 83.4172 659.905 83.3994 660.462 83.3994C660.612 83.3994 660.763 83.3935 660.92 83.3994C661.397 83.4172 661.875 83.4647 662.36 83.524C662.641 83.5655 662.922 83.6129 663.204 83.6663C663.42 83.7079 663.642 83.7553 663.858 83.8028C664.428 83.9273 664.997 84.0816 665.566 84.2595C665.697 84.301 665.828 84.3425 665.959 84.39C666.987 84.734 668.001 85.1611 668.983 85.6416C669.29 85.7899 669.591 85.95 669.892 86.1102C670.063 86.2051 670.233 86.2941 670.403 86.389C670.881 86.6678 671.345 86.9525 671.79 87.2491C671.895 87.3203 671.993 87.3855 672.098 87.4567C672.563 87.777 673.014 88.1033 673.433 88.4354L673.512 88.5007C673.76 88.7024 674.003 88.904 674.232 89.1116L674.48 89.337C674.493 89.3548 674.513 89.3726 674.526 89.3845C674.984 89.8116 675.403 90.2446 675.763 90.6717C676.084 91.0513 676.352 91.4606 676.588 91.8758C676.666 92.0063 676.719 92.1487 676.784 92.2851C676.928 92.5698 677.065 92.8605 677.17 93.1571C677.229 93.3172 677.268 93.4774 677.314 93.6375C677.425 94.0172 677.504 94.4027 677.556 94.7883C677.576 94.9722 677.615 95.1501 677.622 95.3281C677.661 95.8204 677.648 96.3127 677.596 96.8051C677.569 97.0364 677.51 97.2618 677.465 97.4932C677.412 97.7838 677.34 98.0685 677.249 98.3532C677.17 98.6142 677.085 98.8752 676.974 99.1303C676.856 99.3972 676.719 99.6582 676.575 99.9192C676.463 100.115 676.378 100.317 676.254 100.501L676.208 100.595C676.084 100.785 675.933 100.957 675.796 101.135C675.573 101.414 675.338 101.681 675.082 101.93C675.05 101.96 675.017 101.995 674.978 102.031C674.696 102.298 674.402 102.547 674.088 102.772C674.081 102.778 674.068 102.784 674.061 102.79C673.047 103.514 671.875 104.018 670.58 104.297C670.56 104.303 670.54 104.309 670.521 104.309C670.108 104.398 669.69 104.457 669.258 104.499C669.133 104.51 668.996 104.51 668.871 104.516C668.538 104.534 668.204 104.552 667.857 104.546C667.366 104.534 666.869 104.493 666.358 104.421C665.723 104.338 665.089 104.238 664.454 104.131C664.369 104.119 664.284 104.101 664.205 104.089C663.616 103.988 663.034 103.876 662.451 103.763C662.432 103.757 662.405 103.751 662.386 103.745C658.498 102.956 654.827 101.835 652.412 100.667ZM668.505 10.9435C697.158 -7.427 718.919 8.81404 726.949 16.6439C727.165 16.8574 727.315 16.9998 727.394 17.071C732.787 21.6918 737.682 30.103 740.883 39.7716C742.211 43.7874 743.252 48.0227 743.906 52.2876C744.698 57.4126 742.918 62.4367 738.631 67.2296C735.536 66.4288 732.276 65.7407 728.886 65.1594C728.86 65.1535 728.827 65.1475 728.795 65.1416C727.322 64.8925 725.823 64.6611 724.292 64.4535C724.024 64.412 723.749 64.3705 723.474 64.3349C721.857 64.1273 720.221 63.9315 718.552 63.7714C717.531 63.6705 716.504 63.6468 715.483 63.6705C715.365 63.6765 715.247 63.6705 715.136 63.6765C714.2 63.7061 713.264 63.7951 712.335 63.9197C712.119 63.9493 711.903 63.973 711.687 64.0086C710.843 64.1391 710.005 64.3052 709.167 64.501C708.846 64.5781 708.526 64.6552 708.205 64.7382C707.465 64.934 706.732 65.1535 705.999 65.3907C705.568 65.5331 705.142 65.6814 704.717 65.8415C704.265 66.0017 703.82 66.1796 703.375 66.3576C702.642 66.6482 701.922 66.9567 701.202 67.2889C701.052 67.3601 700.901 67.4312 700.751 67.5024C689.893 72.6155 680.521 81.6021 675.802 86.6381C675.351 86.6856 674.899 86.7271 674.454 86.7686C674.421 86.7449 674.389 86.7271 674.362 86.7034C674.035 86.4542 673.708 86.217 673.361 85.9797C679.199 78.9269 684.114 71.4351 690.685 64.8628C687.759 66.4584 682.72 71.9749 680.069 74.6739C676.954 77.8888 674.179 81.4894 672.87 85.6475C672.301 85.2738 671.705 84.9239 671.09 84.5857C671.025 84.5442 670.953 84.5086 670.887 84.473C670.691 84.3663 670.495 84.2595 670.298 84.1587C670.468 83.6367 670.645 83.1147 670.822 82.5986C674.389 70.6225 679.827 58.4684 690.593 50.3064L690.475 50.1521C687.419 52.1155 684.723 54.506 682.262 57.0745C675.305 64.6018 669.997 73.9561 669.814 83.9273C669.578 83.8087 669.336 83.696 669.094 83.5892C669.074 83.5774 669.055 83.5655 669.035 83.5596C668.459 83.2986 667.87 83.0732 667.281 82.8537C667.091 82.7884 666.902 82.7232 666.718 82.6579C666.345 82.5334 665.966 82.4147 665.593 82.308C670.9 64.6789 677.818 47.388 688.728 31.9181C682.556 38.7988 677.596 47.8269 673.269 56.1491C669.002 64.3289 665.933 73.1435 665.213 82.2012C665.148 82.1834 665.082 82.1597 665.017 82.1478C664.84 82.1004 664.657 82.0648 664.48 82.0232C664.028 81.9165 663.57 81.8334 663.119 81.7623C662.922 81.7267 662.726 81.6911 662.523 81.6673C662.137 81.614 661.744 81.5843 661.365 81.5606C660.475 70.0056 659.022 58.0532 659.205 46.5041C658.06 52.0028 658.328 58.676 658.204 64.5899C658.269 70.1183 658.374 76.5898 660.952 81.5368C660.9 81.5309 660.848 81.5368 660.795 81.5368C660.638 81.5309 660.488 81.5309 660.337 81.5368C659.715 81.5368 659.1 81.5665 658.505 81.6495C658.492 81.6495 658.479 81.6555 658.465 81.6614C658.099 81.7148 657.732 81.8275 657.366 81.9817C657.222 82.041 657.078 82.1241 656.934 82.1953C656.679 82.3258 656.43 82.4681 656.175 82.6342C656.162 82.6461 656.149 82.652 656.136 82.6579C655.978 82.3198 655.756 82.0055 655.54 81.6911C651.031 69.0921 639.702 29.4089 668.505 10.9435ZM613.778 111.071C607.744 109.968 603.111 106.207 600.008 99.8836C589.969 79.4607 576.225 51.4927 598.353 34.4865C602.607 31.2122 606.946 30.0674 611.252 31.0817C624.479 34.1899 634.139 55.989 635.939 60.325C636.194 60.9419 636.547 61.5292 636.979 62.0512L653.577 82.3139C653.596 82.3436 653.609 82.3673 653.629 82.3969C653.884 83.0969 654.113 83.7019 654.316 84.2298C653.989 84.568 653.668 84.9298 653.354 85.3094C653.275 85.4043 653.204 85.4992 653.125 85.5941C643.027 78.3397 634.381 69.6141 628.092 59.3938C630.062 64.6908 634.394 70.2191 638.236 75.006C642.012 79.6268 646.836 83.8443 652.824 85.9797C652.608 86.2644 652.392 86.561 652.183 86.8635C652.117 86.9584 652.052 87.0533 651.986 87.1482C651.639 87.6643 651.299 88.1922 650.978 88.732C650.939 88.8032 650.9 88.8744 650.854 88.9396C645.599 84.8823 638.53 81.8809 632.136 79.2472C625.081 76.3763 617.888 73.6773 610.375 71.9453C617.038 74.5256 624.741 77.2838 631.416 80.5937C637.732 83.6901 644.008 86.8101 650.631 89.343C650.461 89.6396 650.291 89.9362 650.134 90.2387C649.977 90.5353 649.826 90.8259 649.676 91.1225C649.624 91.2233 649.571 91.3242 649.525 91.425C645.808 89.2659 641.305 88.477 636.94 88.6312C632.247 88.6134 627.581 89.2421 623.183 90.5708L623.242 90.7547C627.719 89.948 632.339 89.776 636.868 90.126C641.102 90.5649 645.062 91.342 649.27 91.9529C648.812 92.9139 648.426 93.8333 648.105 94.6875C645.356 94.2129 642.653 94.468 639.937 94.9959C636.933 95.423 633.936 95.9094 630.945 96.4432L630.965 96.6271C634.014 96.6331 637.058 96.5797 640.095 96.4788C642.752 96.5204 645.33 96.3187 647.824 95.4764C647.771 95.6247 647.732 95.767 647.686 95.9094C647.569 96.3009 647.464 96.6686 647.385 96.989C646.031 98.46 644.663 99.7769 643.229 100.999C637.234 106.112 624.453 113.011 613.778 111.071ZM655.887 153.619C638.203 140.041 628.942 129.424 628.334 122.08C628.131 119.577 628.897 117.471 630.677 115.632C634.826 111.35 644.421 106.195 651.934 102.547C652.039 102.594 652.156 102.636 652.261 102.683C652.516 102.79 652.772 102.897 653.033 103.004C653.315 103.116 653.596 103.235 653.891 103.342C653.937 103.36 653.989 103.377 654.028 103.389C655.187 103.816 656.404 104.202 657.654 104.546C653.001 108.55 650.167 113.853 645.533 117.922L645.664 118.064C648.413 116.202 650.919 114.066 653.262 111.783C655.507 109.784 657.386 107.482 658.374 104.742C660.167 105.21 661.96 105.59 663.636 105.887C660.992 108.686 659.558 112.18 658.407 115.662C657.026 119.446 655.821 123.266 654.761 127.128L654.957 127.181C656.581 123.498 658.236 119.826 659.951 116.196C661.718 112.868 663.178 109.552 664.343 106.011C664.513 106.041 664.676 106.064 664.846 106.088C665.278 106.159 665.684 106.219 666.044 106.272C666.653 106.355 667.248 106.397 667.837 106.409C667.994 106.414 668.138 106.403 668.296 106.397C668.368 106.397 668.44 106.397 668.512 106.397C667.576 107.862 667.196 109.594 667.013 111.213C666.843 117.258 668.42 123.249 670.01 129.068L670.213 129.032C669.644 125.076 669.251 121.107 669.055 117.157C669.186 113.515 668.826 109.973 669.323 106.373C669.415 106.367 669.493 106.349 669.578 106.343C669.742 106.325 669.906 106.296 670.069 106.272C670.462 106.219 670.848 106.159 671.228 106.07C671.398 106.029 671.568 105.981 671.731 105.94C671.934 105.881 672.144 105.845 672.334 105.78C672.857 110.039 675.619 113.788 678.473 117.062C681.509 120.716 684.84 124.127 688.381 127.347L688.538 127.217C686.974 125.449 685.488 123.628 684.042 121.789C679.893 116.599 676.345 111.16 672.988 105.537C673.099 105.495 673.198 105.436 673.302 105.394C673.584 105.27 673.865 105.133 674.133 104.985C674.343 104.878 674.546 104.765 674.742 104.647C674.951 104.516 675.148 104.374 675.344 104.232C675.58 104.065 675.815 103.899 676.031 103.716C676.143 103.621 676.241 103.52 676.345 103.425C676.614 103.176 676.882 102.927 677.131 102.648L677.334 102.701C678.106 102.903 678.859 103.069 679.605 103.241C679.768 103.277 679.945 103.324 680.109 103.36C680.822 103.514 681.516 103.644 682.203 103.769C682.439 103.81 682.681 103.864 682.916 103.905C683.518 104.006 684.094 104.083 684.677 104.16C684.978 104.202 685.286 104.255 685.573 104.291C686.091 104.35 686.575 104.386 687.079 104.427C687.406 104.451 687.753 104.493 688.08 104.516C688.532 104.54 688.964 104.54 689.402 104.552C689.742 104.558 690.096 104.582 690.43 104.582C690.855 104.576 691.248 104.546 691.66 104.528C691.981 104.51 692.315 104.51 692.622 104.487C693.074 104.445 693.493 104.386 693.918 104.326C694.167 104.291 694.428 104.273 694.671 104.232C695.325 104.119 695.953 103.982 696.555 103.816C696.922 103.721 697.308 103.65 697.707 103.597C698.08 103.555 698.467 103.532 698.866 103.526C698.892 103.526 698.912 103.52 698.938 103.52C704.115 103.484 711.648 106.711 716.981 112.168C716.988 112.174 716.988 112.174 716.988 112.18C717.433 112.631 717.858 113.094 718.264 113.58C718.271 113.586 718.277 113.586 718.277 113.592C718.683 114.072 719.076 114.571 719.449 115.081C722.158 118.83 725.274 125.538 721.746 133.944C721.451 134.632 721.118 135.332 720.738 136.043C720.725 136.061 720.712 136.085 720.705 136.103C720.326 136.803 719.9 137.508 719.429 138.22C719.403 138.256 719.383 138.291 719.357 138.327C718.886 139.033 718.369 139.745 717.8 140.468C717.754 140.522 717.714 140.569 717.675 140.623C717.112 141.329 716.491 142.046 715.823 142.77C714.632 144.057 713.316 145.368 711.772 146.703C711.15 147.237 710.358 147.646 709.488 147.883L699.599 150.57C698.349 150.908 697.23 151.513 696.346 152.32C691.83 156.443 675.567 168.727 655.887 153.619Z" fill="#C9ABB1"/>
</g>
</g>
</g>
<path d="M864.208 81.6875C869.276 81.6875 874.984 82.1354 881.333 83.0208C887.677 83.9115 894.021 85.625 900.354 88.1667C906.698 90.7083 912.484 94.4479 917.708 99.375C922.927 104.292 927.146 110.854 930.354 119.063C933.563 127.271 935.167 137.495 935.167 149.729C935.167 162.427 933.375 173.063 929.792 181.646C926.208 190.219 921.505 197.156 915.688 202.458C909.865 207.75 903.635 211.823 897 214.667C890.359 217.5 883.943 219.438 877.75 220.479C871.552 221.521 866.255 222.12 861.854 222.271C857.448 222.422 854.651 222.5 853.458 222.5H806V81.6875H864.208ZM853.229 218.688C859.354 218.688 865.813 218.135 872.604 217.021C879.396 215.896 886.031 213.917 892.521 211.083C899.021 208.25 904.88 204.26 910.104 199.104C915.323 193.953 919.5 187.349 922.625 179.292C925.76 171.224 927.333 161.37 927.333 149.729C927.333 137.802 925.688 127.917 922.396 120.083C919.115 112.24 914.792 106 909.417 101.375C904.052 96.75 898.156 93.3229 891.729 91.0833C885.313 88.849 878.969 87.3958 872.708 86.7292C866.443 86.0521 860.771 85.7083 855.688 85.7083H814.063V218.688H853.229Z" fill="#503530"/>
<path d="M1054.71 222.5H1044.42L992.483 157.125C991.577 157.125 990.754 157.125 990.004 157.125C989.264 157.125 988.744 157.125 988.442 157.125H964.275V222.5H956.212V81.6875H998.754C1001.59 81.6875 1005.5 82.099 1010.5 82.9167C1015.5 83.7396 1020.54 85.3438 1025.61 87.7292C1030.68 90.1198 1034.96 93.6667 1038.46 98.375C1041.97 103.073 1043.73 109.224 1043.73 116.833C1043.73 124.141 1042.39 130.182 1039.71 134.958C1037.03 139.74 1033.52 143.583 1029.19 146.5C1024.86 149.406 1020.3 151.604 1015.52 153.104C1010.76 154.594 1006.29 155.635 1002.11 156.229L1054.71 222.5ZM984.421 153.313C993.223 153.313 1001.55 152.24 1009.38 150.083C1017.21 147.917 1023.55 144.37 1028.4 139.438C1033.26 134.51 1035.69 127.87 1035.69 119.521C1035.69 109.969 1033.52 102.766 1029.19 97.9167C1024.86 93.0573 1019.18 89.7708 1012.17 88.0625C1005.16 86.3438 997.843 85.4792 990.233 85.4792H964.275V153.313H984.421Z" fill="#503530"/>
<path d="M1144.49 85.4792H1081.13V147.042H1138.44V150.854H1081.13V218.688H1144.49V222.5H1073.07V81.6875H1144.49V85.4792Z" fill="#503530"/>
<path d="M1161.71 222.5L1225.53 79H1226.86L1288.21 222.5H1279.48L1255.3 165.854H1191.94L1166.86 222.5H1161.71ZM1193.73 162.271H1253.73L1224.17 93.5417L1193.73 162.271Z" fill="#503530"/>
<path d="M1449.84 79L1466.63 222.5H1458.57L1443.8 97.125L1384.24 210.188H1383.34L1324.9 97.5625L1308.13 222.5H1304.32L1323.8 79H1324.46L1386.26 198.313L1449.17 79H1449.84Z" fill="#503530"/>
<path d="M650.896 194V196.25H622.771V277.438H618.125V196.25H590V194H650.896Z" fill="#503530"/>
<path d="M714.836 194H719.607V277.438H714.836V235H666.419V277.438H661.648V194H666.419V232.729H714.836V194Z" fill="#503530"/>
<path d="M775.201 196.25H737.659V232.729H771.617V235H737.659V275.188H775.201V277.438H732.888V194H775.201V196.25Z" fill="#503530"/>
<path d="M8.0625 215.688H72.0833V219.5H0V78.6875H8.0625V215.688Z" fill="#503530"/>
<path d="M93.5657 219.5V78.6875H101.628V219.5H93.5657Z" fill="#503530"/>
<path d="M244.014 78.6875H249.16L185.348 222.188H184.244L122.681 78.6875H131.41L186.702 207.854L244.014 78.6875Z" fill="#503530"/>
<path d="M269.746 219.5V78.6875H277.809V219.5H269.746Z" fill="#503530"/>
<path d="M416.612 78.6875V223.292H415.716L306.007 92.1042V219.5H302.216V76H302.882L412.799 207.396V78.6875H416.612Z" fill="#503530"/>
<path d="M523.163 147.854H559.205V211.667C559.205 211.667 557.226 212.641 553.267 214.583C549.319 216.516 543.84 218.448 536.83 220.375C529.814 222.318 521.606 223.292 512.205 223.292C506.523 223.292 500.361 222.656 493.726 221.396C487.085 220.13 480.444 217.865 473.809 214.583C467.168 211.292 461.085 206.849 455.559 201.25C450.028 195.656 445.585 188.641 442.226 180.208C438.877 171.781 437.205 161.594 437.205 149.646C437.205 136.661 439.293 125.51 443.476 116.188C447.653 106.854 453.361 99.2448 460.601 93.3542C467.835 87.4531 476.08 83.0833 485.33 80.25C494.58 77.4167 504.205 76 514.205 76C522.715 76 530.069 76.4531 536.267 77.3542C542.46 78.2448 547.194 79.1354 550.476 80.0208C553.767 80.9115 555.413 81.3542 555.413 81.3542V86.0625C555.413 86.0625 553.809 85.5417 550.601 84.5C547.392 83.4583 542.726 82.4167 536.601 81.375C530.476 80.3229 523.007 79.7917 514.205 79.7917C509.58 79.7917 504.247 80.3542 498.205 81.4792C492.163 82.5938 486.043 84.6406 479.851 87.625C473.653 90.6146 467.944 94.7188 462.726 99.9375C457.502 105.161 453.288 111.844 450.08 119.979C446.872 128.12 445.267 138.01 445.267 149.646C445.267 162.786 447.205 173.833 451.08 182.792C454.955 191.74 460.174 198.938 466.747 204.396C473.314 209.844 480.705 213.76 488.913 216.146C497.122 218.521 505.549 219.708 514.205 219.708C522.122 219.708 529.288 218.781 535.705 216.917C542.122 215.057 547.273 213.156 551.163 211.208V151.438H523.163V147.854Z" fill="#503530"/>
</svg>
