<svg width="307" height="243" viewBox="0 0 307 243" fill="none" xmlns="http://www.w3.org/2000/svg">
<path d="M278.912 162.371L278.741 124.619L307 104.301L153.078 0L0 106.387L61.3733 151.663L61.4957 178.566L61.5081 180.715L62.0689 180.37C61.422 181.498 61.0074 182.658 61.0198 183.818C61.0686 197.05 102.639 207.522 153.946 207.162C205.229 206.817 246.738 195.734 246.702 182.533C246.702 181.373 246.226 180.245 245.592 179.084L246.152 179.429V177.281L246.043 150.269L272.654 128.994L272.8 162.419C269.872 164.033 267.835 167.733 267.859 172.061C267.884 177.737 271.47 182.329 275.924 182.282C280.402 182.25 283.953 177.61 283.928 171.95C283.903 167.623 281.853 163.954 278.912 162.371ZM153.909 198.053C108.386 198.382 71.464 191.954 71.4277 183.756C71.3915 175.556 108.264 168.674 153.788 168.375C199.323 168.046 236.233 174.442 236.258 182.626C236.293 190.795 199.444 197.74 153.909 198.053ZM243.943 128.351C237.781 120.026 215.697 98.046 153.494 98.5017C91.2057 98.9253 69.4021 121.172 63.314 129.622L63.2778 121.658C63.2778 121.658 80.9452 87.12 153.447 86.6338C225.911 86.1316 243.908 120.403 243.908 120.403L243.943 128.351ZM269.445 184.539L266.309 243C276.009 223.419 284.111 230.709 284.111 230.709L283.916 184.444C273.495 189.697 269.445 184.539 269.445 184.539Z" fill="white"/>
</svg>
