<svg xmlns="http://www.w3.org/2000/svg" xmlns:xlink="http://www.w3.org/1999/xlink" width="500" zoomAndPan="magnify" viewBox="0 0 375 374.999991" height="500" preserveAspectRatio="xMidYMid meet" version="1.0"><defs><g/><clipPath id="223be8aef6"><path d="M 13 177 L 105 177 L 105 240 L 13 240 Z M 13 177 " clip-rule="nonzero"/></clipPath><clipPath id="a40d1fd9d0"><path d="M 7.730469 246.265625 L 7.644531 177.496094 L 110.335938 177.367188 L 110.425781 246.132812 Z M 7.730469 246.265625 " clip-rule="nonzero"/></clipPath><clipPath id="9b2e00df7b"><path d="M 7.730469 246.265625 L 7.644531 177.496094 L 110.335938 177.367188 L 110.425781 246.132812 Z M 7.730469 246.265625 " clip-rule="nonzero"/></clipPath><clipPath id="63f55117f1"><path d="M 13 128 L 105 128 L 105 191 L 13 191 Z M 13 128 " clip-rule="nonzero"/></clipPath><clipPath id="67ffb2672c"><path d="M 7.667969 196.84375 L 7.582031 128.078125 L 110.273438 127.945312 L 110.359375 196.714844 Z M 7.667969 196.84375 " clip-rule="nonzero"/></clipPath><clipPath id="c1ca68851e"><path d="M 7.667969 196.84375 L 7.582031 128.078125 L 110.273438 127.945312 L 110.359375 196.714844 Z M 7.667969 196.84375 " clip-rule="nonzero"/></clipPath></defs><rect x="-37.5" width="450" fill="#ffffff" y="-37.499999" height="449.999989" fill-opacity="1"/><rect x="-37.5" width="450" fill="#ffffff" y="-37.499999" height="449.999989" fill-opacity="1"/><g fill="#190099" fill-opacity="1"><g transform="translate(98.32548, 243.468325)"><g><path d="M 13.046875 0 L 13.046875 -121.21875 L 62.265625 -121.21875 C 68.140625 -121.21875 73.644531 -120.753906 78.78125 -119.828125 C 83.925781 -118.910156 88.609375 -117.535156 92.828125 -115.703125 C 97.054688 -113.867188 100.734375 -111.539062 103.859375 -108.71875 C 106.984375 -105.90625 109.335938 -102.570312 110.921875 -98.71875 C 112.515625 -94.863281 113.3125 -90.484375 113.3125 -85.578125 C 113.3125 -81.296875 112.664062 -77.441406 111.375 -74.015625 C 110.09375 -70.585938 108.101562 -67.554688 105.40625 -64.921875 C 102.71875 -62.285156 99.320312 -60.140625 95.21875 -58.484375 C 91.125 -56.835938 86.382812 -55.707031 81 -55.09375 L 81 -52.53125 C 87.238281 -51.789062 92.253906 -50.316406 96.046875 -48.109375 C 99.847656 -45.910156 102.816406 -42.910156 104.953125 -39.109375 C 107.097656 -35.316406 108.96875 -30.609375 110.5625 -24.984375 L 117.71875 0 L 88.515625 0 L 83.015625 -22.953125 C 81.910156 -27.847656 80.316406 -31.703125 78.234375 -34.515625 C 76.148438 -37.335938 73.546875 -39.300781 70.421875 -40.40625 C 67.304688 -41.507812 63.546875 -42.0625 59.140625 -42.0625 L 39.484375 -42.0625 L 39.484375 0 Z M 39.484375 -62.078125 L 56.5625 -62.078125 C 58.644531 -62.078125 60.972656 -62.132812 63.546875 -62.25 C 66.117188 -62.375 68.71875 -62.742188 71.34375 -63.359375 C 73.976562 -63.972656 76.367188 -64.953125 78.515625 -66.296875 C 80.660156 -67.640625 82.4375 -69.535156 83.84375 -71.984375 C 85.25 -74.441406 85.953125 -77.566406 85.953125 -81.359375 C 85.953125 -85.273438 85.273438 -88.457031 83.921875 -90.90625 C 82.578125 -93.351562 80.863281 -95.25 78.78125 -96.59375 C 76.707031 -97.945312 74.503906 -98.925781 72.171875 -99.53125 C 69.847656 -100.144531 67.644531 -100.515625 65.5625 -100.640625 C 63.476562 -100.765625 61.828125 -100.828125 60.609375 -100.828125 L 39.484375 -100.828125 Z M 39.484375 -62.078125 "/></g></g></g><g fill="#190099" fill-opacity="1"><g transform="translate(196.933835, 243.468325)"><g><path d="M 13.046875 0 L 13.046875 -121.21875 L 52.703125 -121.21875 L 85.953125 -29.9375 L 86.875 -29.9375 L 119.5625 -121.21875 L 157.578125 -121.21875 L 157.578125 0 L 132.421875 0 L 133.890625 -94.40625 L 132.046875 -94.40625 L 96.046875 0 L 73.640625 0 L 38.015625 -94.40625 L 36.1875 -94.40625 L 37.65625 0 Z M 13.046875 0 "/></g></g></g><g clip-path="url(#223be8aef6)"><g clip-path="url(#a40d1fd9d0)"><g clip-path="url(#9b2e00df7b)"><path fill="#190099" d="M 59.695312 177.546875 L 16.128906 220.78125 C 7.714844 229.132812 23.320312 246.242188 33.113281 236.183594 L 59.734375 208.832031 L 85.988281 236.996094 C 93.984375 245.574219 110.347656 229.644531 102.050781 221.113281 Z M 59.695312 177.546875 " fill-opacity="1" fill-rule="nonzero"/></g></g></g><g clip-path="url(#63f55117f1)"><g clip-path="url(#67ffb2672c)"><g clip-path="url(#c1ca68851e)"><path fill="#18cb96" d="M 59.632812 128.125 L 16.066406 171.363281 C 7.652344 179.714844 23.257812 196.824219 33.050781 186.761719 L 59.671875 159.410156 L 85.925781 187.578125 C 93.921875 196.152344 110.285156 180.226562 101.988281 171.695312 Z M 59.632812 128.125 " fill-opacity="1" fill-rule="nonzero"/></g></g></g></svg>