<svg width="1408" height="160" viewBox="0 0 1408 160" fill="none" xmlns="http://www.w3.org/2000/svg">
<path d="M167.812 106.911L167.709 82.0534L184.712 68.6754L92.1023 0L0 70.0489L36.9263 99.8604L36.9999 117.574L37.0074 118.989L37.3448 118.762C36.9556 119.505 36.7061 120.269 36.7136 121.032C36.7429 129.745 61.7544 136.64 92.6245 136.403C123.48 136.176 148.454 128.878 148.432 120.186C148.432 119.422 148.146 118.68 147.764 117.916L148.102 118.143V116.728L148.036 98.9423L164.047 84.9346L164.135 106.942C162.373 108.005 161.147 110.442 161.162 113.291C161.177 117.028 163.335 120.052 166.014 120.021C168.709 120 170.845 116.945 170.83 113.218C170.815 110.369 169.582 107.954 167.812 106.911ZM92.602 130.405C65.2123 130.622 42.9975 126.389 42.9757 120.991C42.9539 115.592 65.1387 111.061 92.5291 110.864C119.926 110.648 142.134 114.859 142.149 120.247C142.17 125.626 119.999 130.199 92.602 130.405ZM146.773 84.5109C143.065 79.0296 129.778 64.557 92.3525 64.8571C54.8755 65.136 41.757 79.7839 38.0939 85.3477L38.0721 80.1041C38.0721 80.1041 48.7021 57.363 92.324 57.0429C135.923 56.7122 146.752 79.2779 146.752 79.2779L146.773 84.5109ZM162.116 121.507L160.229 160C166.065 147.107 170.94 151.907 170.94 151.907L170.823 121.445C164.553 124.904 162.116 121.507 162.116 121.507Z" fill="#190099"/>
<path d="M208.455 115V45.1818H232.045C237.5 45.1818 241.977 46.1136 245.477 47.9773C248.977 49.8182 251.568 52.3523 253.25 55.5795C254.932 58.8068 255.773 62.4773 255.773 66.5909C255.773 70.7045 254.932 74.3523 253.25 77.5341C251.568 80.7159 248.989 83.2159 245.511 85.0341C242.034 86.8295 237.591 87.7273 232.182 87.7273H213.091V80.0909H231.909C235.636 80.0909 238.636 79.5455 240.909 78.4545C243.205 77.3636 244.864 75.8182 245.886 73.8182C246.932 71.7955 247.455 69.3864 247.455 66.5909C247.455 63.7955 246.932 61.3523 245.886 59.2614C244.841 57.1705 243.17 55.5568 240.875 54.4205C238.58 53.2614 235.545 52.6818 231.773 52.6818H216.909V115H208.455ZM241.318 83.6364L258.5 115H248.682L231.773 83.6364H241.318ZM290.162 116.091C285.116 116.091 280.764 114.977 277.105 112.75C273.469 110.5 270.662 107.364 268.685 103.341C266.73 99.2955 265.753 94.5909 265.753 89.2273C265.753 83.8636 266.73 79.1364 268.685 75.0455C270.662 70.9318 273.412 67.7273 276.935 65.4318C280.48 63.1136 284.616 61.9545 289.344 61.9545C292.071 61.9545 294.764 62.4091 297.423 63.3182C300.082 64.2273 302.503 65.7045 304.685 67.75C306.866 69.7727 308.605 72.4545 309.901 75.7955C311.196 79.1364 311.844 83.25 311.844 88.1364V91.5455H271.48V84.5909H303.662C303.662 81.6364 303.071 79 301.889 76.6818C300.73 74.3636 299.071 72.5341 296.912 71.1932C294.776 69.8523 292.253 69.1818 289.344 69.1818C286.139 69.1818 283.366 69.9773 281.026 71.5682C278.707 73.1364 276.923 75.1818 275.673 77.7045C274.423 80.2273 273.798 82.9318 273.798 85.8182V90.4545C273.798 94.4091 274.48 97.7614 275.844 100.511C277.23 103.239 279.151 105.318 281.605 106.75C284.06 108.159 286.912 108.864 290.162 108.864C292.276 108.864 294.185 108.568 295.889 107.977C297.616 107.364 299.105 106.455 300.355 105.25C301.605 104.023 302.571 102.5 303.253 100.682L311.026 102.864C310.207 105.5 308.832 107.818 306.901 109.818C304.969 111.795 302.582 113.341 299.741 114.455C296.901 115.545 293.707 116.091 290.162 116.091ZM365.307 62.6364L345.943 115H337.761L318.398 62.6364H327.125L341.58 104.364H342.125L356.58 62.6364H365.307ZM389.741 116.227C386.423 116.227 383.412 115.602 380.707 114.352C378.003 113.08 375.855 111.25 374.264 108.864C372.673 106.455 371.878 103.545 371.878 100.136C371.878 97.1364 372.469 94.7045 373.651 92.8409C374.832 90.9545 376.412 89.4773 378.389 88.4091C380.366 87.3409 382.548 86.5455 384.935 86.0227C387.344 85.4773 389.764 85.0455 392.196 84.7273C395.378 84.3182 397.957 84.0114 399.935 83.8068C401.935 83.5795 403.389 83.2045 404.298 82.6818C405.23 82.1591 405.696 81.25 405.696 79.9545V79.6818C405.696 76.3182 404.776 73.7045 402.935 71.8409C401.116 69.9773 398.355 69.0455 394.651 69.0455C390.81 69.0455 387.798 69.8864 385.616 71.5682C383.435 73.25 381.901 75.0455 381.014 76.9545L373.378 74.2273C374.741 71.0455 376.56 68.5682 378.832 66.7955C381.128 65 383.628 63.75 386.332 63.0455C389.06 62.3182 391.741 61.9545 394.378 61.9545C396.06 61.9545 397.991 62.1591 400.173 62.5682C402.378 62.9545 404.503 63.7614 406.548 64.9886C408.616 66.2159 410.332 68.0682 411.696 70.5455C413.06 73.0227 413.741 76.3409 413.741 80.5V115H405.696V107.909H405.287C404.741 109.045 403.832 110.261 402.56 111.557C401.287 112.852 399.594 113.955 397.48 114.864C395.366 115.773 392.787 116.227 389.741 116.227ZM390.969 109C394.151 109 396.832 108.375 399.014 107.125C401.219 105.875 402.878 104.261 403.991 102.284C405.128 100.307 405.696 98.2273 405.696 96.0455V88.6818C405.355 89.0909 404.605 89.4659 403.446 89.8068C402.31 90.125 400.991 90.4091 399.491 90.6591C398.014 90.8864 396.571 91.0909 395.162 91.2727C393.776 91.4318 392.651 91.5682 391.787 91.6818C389.696 91.9545 387.741 92.3977 385.923 93.0114C384.128 93.6023 382.673 94.5 381.56 95.7045C380.469 96.8864 379.923 98.5 379.923 100.545C379.923 103.341 380.957 105.455 383.026 106.886C385.116 108.295 387.764 109 390.969 109ZM428.426 115V62.6364H436.199V70.8182H436.881C437.972 68.0227 439.733 65.8523 442.165 64.3068C444.597 62.7386 447.517 61.9545 450.926 61.9545C454.381 61.9545 457.256 62.7386 459.551 64.3068C461.869 65.8523 463.676 68.0227 464.972 70.8182H465.517C466.858 68.1136 468.869 65.9659 471.551 64.375C474.233 62.7614 477.449 61.9545 481.199 61.9545C485.881 61.9545 489.71 63.4205 492.688 66.3523C495.665 69.2614 497.153 73.7955 497.153 79.9545V115H489.108V79.9545C489.108 76.0909 488.051 73.3295 485.938 71.6705C483.824 70.0114 481.335 69.1818 478.472 69.1818C474.79 69.1818 471.938 70.2955 469.915 72.5227C467.892 74.7273 466.881 77.5227 466.881 80.9091V115H458.699V79.1364C458.699 76.1591 457.733 73.7614 455.801 71.9432C453.869 70.1023 451.381 69.1818 448.335 69.1818C446.244 69.1818 444.29 69.7386 442.472 70.8523C440.676 71.9659 439.222 73.5114 438.108 75.4886C437.017 77.4432 436.472 79.7045 436.472 82.2727V115H428.426ZM511.864 134.636V62.6364H519.636V70.9545H520.591C521.182 70.0455 522 68.8864 523.045 67.4773C524.114 66.0455 525.636 64.7727 527.614 63.6591C529.614 62.5227 532.318 61.9545 535.727 61.9545C540.136 61.9545 544.023 63.0568 547.386 65.2614C550.75 67.4659 553.375 70.5909 555.261 74.6364C557.148 78.6818 558.091 83.4545 558.091 88.9545C558.091 94.5 557.148 99.3068 555.261 103.375C553.375 107.42 550.761 110.557 547.42 112.784C544.08 114.989 540.227 116.091 535.864 116.091C532.5 116.091 529.807 115.534 527.784 114.42C525.761 113.284 524.205 112 523.114 110.568C522.023 109.114 521.182 107.909 520.591 106.955H519.909V134.636H511.864ZM519.773 88.8182C519.773 92.7727 520.352 96.2614 521.511 99.2841C522.67 102.284 524.364 104.636 526.591 106.341C528.818 108.023 531.545 108.864 534.773 108.864C538.136 108.864 540.943 107.977 543.193 106.205C545.466 104.409 547.17 102 548.307 98.9773C549.466 95.9318 550.045 92.5455 550.045 88.8182C550.045 85.1364 549.477 81.8182 548.341 78.8636C547.227 75.8864 545.534 73.5341 543.261 71.8068C541.011 70.0568 538.182 69.1818 534.773 69.1818C531.5 69.1818 528.75 70.0114 526.523 71.6705C524.295 73.3068 522.614 75.6023 521.477 78.5568C520.341 81.4886 519.773 84.9091 519.773 88.8182ZM571.455 115V45.1818H613.591V52.6818H579.909V76.2727H611.409V83.7727H579.909V107.5H614.136V115H571.455ZM647.511 116.091C643.148 116.091 639.295 114.989 635.955 112.784C632.614 110.557 630 107.42 628.114 103.375C626.227 99.3068 625.284 94.5 625.284 88.9545C625.284 83.4545 626.227 78.6818 628.114 74.6364C630 70.5909 632.625 67.4659 635.989 65.2614C639.352 63.0568 643.239 61.9545 647.648 61.9545C651.057 61.9545 653.75 62.5227 655.727 63.6591C657.727 64.7727 659.25 66.0455 660.295 67.4773C661.364 68.8864 662.193 70.0455 662.784 70.9545H663.466V45.1818H671.511V115H663.739V106.955H662.784C662.193 107.909 661.352 109.114 660.261 110.568C659.17 112 657.614 113.284 655.591 114.42C653.568 115.534 650.875 116.091 647.511 116.091ZM648.602 108.864C651.83 108.864 654.557 108.023 656.784 106.341C659.011 104.636 660.705 102.284 661.864 99.2841C663.023 96.2614 663.602 92.7727 663.602 88.8182C663.602 84.9091 663.034 81.4886 661.898 78.5568C660.761 75.6023 659.08 73.3068 656.852 71.6705C654.625 70.0114 651.875 69.1818 648.602 69.1818C645.193 69.1818 642.352 70.0568 640.08 71.8068C637.83 73.5341 636.136 75.8864 635 78.8636C633.886 81.8182 633.33 85.1364 633.33 88.8182C633.33 92.5455 633.898 95.9318 635.034 98.9773C636.193 102 637.898 104.409 640.148 106.205C642.42 107.977 645.239 108.864 648.602 108.864ZM720.364 93.5909V62.6364H728.409V115H720.364V106.136H719.818C718.591 108.795 716.682 111.057 714.091 112.92C711.5 114.761 708.227 115.682 704.273 115.682C701 115.682 698.091 114.966 695.545 113.534C693 112.08 691 109.898 689.545 106.989C688.091 104.057 687.364 100.364 687.364 95.9091V62.6364H695.409V95.3636C695.409 99.1818 696.477 102.227 698.614 104.5C700.773 106.773 703.523 107.909 706.864 107.909C708.864 107.909 710.898 107.398 712.966 106.375C715.057 105.352 716.807 103.784 718.216 101.67C719.648 99.5568 720.364 96.8636 720.364 93.5909Z" fill="black"/>
</svg>
